<svg width="41" height="41" viewBox="0 0 41 41" fill="none" xmlns="http://www.w3.org/2000/svg">
<path fill-rule="evenodd" clip-rule="evenodd" d="M8.68701 4.52511C7.25635 5.52547 5.96265 6.70822 4.8396 8.03964C9.4289 7.61357 15.2594 8.30929 22.0286 11.6939C29.2572 15.3081 35.078 15.4303 39.129 14.6489C38.7614 13.536 38.2986 12.4664 37.7505 11.4496C33.1132 11.9387 27.1682 11.2913 20.2398 7.82722C15.8402 5.62742 11.962 4.72125 8.68701 4.52511ZM35.0416 7.59389C31.3795 3.50224 26.0576 0.927246 20.1342 0.927246C18.3947 0.927246 16.7069 1.14935 15.0979 1.56673C17.2771 2.16133 19.5921 3.03123 22.0286 4.24951C27.1012 6.78577 31.4806 7.6024 35.0416 7.59389ZM39.9951 18.5553C35.1011 19.5217 28.343 19.3232 20.2398 15.2716C12.6642 11.4838 6.63471 11.5315 2.56818 12.4352C2.35828 12.4818 2.15332 12.5308 1.95331 12.5818C1.4209 13.7397 0.995911 14.9573 0.690979 16.2217C1.01666 16.1347 1.35321 16.052 1.70044 15.9748C6.63385 14.8785 13.6043 14.9261 22.0286 19.1383C29.6043 22.9261 35.6338 22.8784 39.7004 21.9747C39.8397 21.9438 39.977 21.9118 40.112 21.8788C40.1268 21.5635 40.1342 21.2462 40.1342 20.9272C40.1342 20.1247 40.087 19.3332 39.9951 18.5553ZM39.459 26.0995C34.6125 26.9468 28.0512 26.6216 20.2398 22.716C12.6642 18.9282 6.63471 18.9759 2.56818 19.8796C1.66553 20.0801 0.853516 20.3244 0.137207 20.5823C0.135254 20.697 0.134277 20.812 0.134277 20.9272C0.134277 31.9729 9.08857 40.9272 20.1342 40.9272C29.3913 40.9272 37.1795 34.6381 39.459 26.0995Z" fill="url(#paint0_linear_2059_2294)"/>
<defs>
<linearGradient id="paint0_linear_2059_2294" x1="36.1342" y1="44.1272" x2="-3.59894" y2="36.5204" gradientUnits="userSpaceOnUse">
<stop stop-color="#5D50C6"/>
<stop offset="1" stop-color="#F85E9F"/>
</linearGradient>
</defs>
</svg>
