<svg width="65" height="20" viewBox="0 0 65 20" fill="none" xmlns="http://www.w3.org/2000/svg">
<path d="M34.4929 5.0253C34.4929 5.74609 33.9122 6.32648 33.1914 6.32648C32.4706 6.32648 31.8902 5.74609 31.8902 5.0253C31.8902 4.30452 32.4508 3.72413 33.1914 3.72413C33.9326 3.74412 34.4929 4.32472 34.4929 5.0253ZM29.1274 7.64805V7.96844C29.1274 7.96844 28.5071 7.16726 27.1857 7.16726C25.0037 7.16726 23.3018 8.82902 23.3018 11.1312C23.3018 13.4135 24.9837 15.0951 27.1857 15.0951C28.5271 15.0951 29.1274 14.2743 29.1274 14.2743V14.6145C29.1274 14.7747 29.2478 14.8945 29.4078 14.8945H31.0292V7.36686H29.4078C29.2478 7.36746 29.1274 7.50785 29.1274 7.64805ZM29.1274 12.4726C28.8275 12.9131 28.2267 13.2935 27.5061 13.2935C26.2249 13.2935 25.2437 12.4928 25.2437 11.1312C25.2437 9.76981 26.2249 8.96902 27.5061 8.96902C28.2069 8.96902 28.8475 9.36941 29.1274 9.7898V12.4726ZM32.2306 7.36745H34.1523V14.8951H32.2306V7.36745ZM60.939 7.16706C59.6176 7.16706 58.9968 7.96824 58.9968 7.96824V3.74413H57.0751V14.8951H58.6969C58.857 14.8951 58.9769 14.7549 58.9769 14.6147V14.2745C58.9769 14.2745 59.5976 15.0953 60.9186 15.0953C63.101 15.0953 64.8025 13.4141 64.8025 11.1318C64.8025 8.84942 63.101 7.16706 60.939 7.16706ZM60.6186 13.2733C59.8776 13.2733 59.2972 12.8933 58.9968 12.4525V9.7698C59.2972 9.36941 59.9378 8.94902 60.6186 8.94902C61.8998 8.94902 62.8808 9.7498 62.8808 11.1112C62.8808 12.4725 61.9 13.2733 60.6186 13.2733ZM56.0743 10.4308V14.9151H54.1521V10.6508C54.1521 9.40981 53.7518 8.90902 52.6714 8.90902C52.091 8.90902 51.4902 9.20942 51.1092 9.65001V14.8953H49.1878V7.36766H50.7088C50.869 7.36766 50.9892 7.50785 50.9892 7.64805V7.96844C51.5498 7.38765 52.2904 7.16726 53.031 7.16726C53.8719 7.16726 54.5727 7.40785 55.1333 7.88824C55.8137 8.44883 56.0743 9.16942 56.0743 10.4308ZM44.5225 7.16706C43.2016 7.16706 42.5808 7.96824 42.5808 7.96824V3.74413H40.659V14.8951H42.2804C42.4406 14.8951 42.5608 14.7549 42.5608 14.6147V14.2745C42.5608 14.2745 43.1816 15.0953 44.5025 15.0953C46.6849 15.0953 48.3865 13.4141 48.3865 11.1318C48.4065 8.84922 46.7049 7.16706 44.5225 7.16706ZM44.2021 13.2733C43.4616 13.2733 42.8812 12.8933 42.5808 12.4525V9.7698C42.8812 9.36941 43.5218 8.94902 44.2021 8.94902C45.4837 8.94902 46.4645 9.7498 46.4645 11.1112C46.4645 12.4725 45.4837 13.2733 44.2021 13.2733ZM38.9972 7.16706C39.5776 7.16706 39.878 7.26746 39.878 7.26746V9.04902C39.878 9.04902 38.2765 8.50843 37.2757 9.64981V14.9149H35.3535V7.36745H36.9753C37.1355 7.36745 37.2553 7.50765 37.2553 7.64785V7.96824C37.6161 7.54765 38.3969 7.16706 38.9972 7.16706ZM19.0378 14.2143C18.9379 13.9741 18.8377 13.7139 18.7377 13.4935C18.5773 13.1333 18.4171 12.7927 18.2773 12.4726L18.2573 12.4525C16.8757 9.44941 15.3945 6.40667 13.8328 3.40394L13.7728 3.28353C13.6085 2.97203 13.4484 2.65835 13.2926 2.34256C13.0922 1.98196 12.8922 1.60197 12.5718 1.24138C11.9312 0.440591 11.0102 0 10.0294 0C9.02825 0 8.12747 0.440594 7.46709 1.20118C7.16669 1.56137 6.9463 1.94177 6.7463 2.30236C6.59006 2.61795 6.42998 2.93163 6.26611 3.24334L6.20591 3.36373C4.66434 6.36647 3.16297 9.40941 1.7816 12.4124L1.7614 12.4522C1.62141 12.7729 1.46101 13.1131 1.30081 13.4731C1.20081 13.6935 1.10082 13.9337 1.00082 14.1939C0.740422 14.9345 0.66022 15.6353 0.760618 16.3563C0.980814 17.8578 1.98159 19.1186 3.36317 19.6796C3.88376 19.9 4.42434 20 4.98473 20C5.14493 20 5.34493 19.98 5.50533 19.9598C6.16611 19.8798 6.8467 19.6598 7.50749 19.2794C8.32827 18.8188 9.10905 18.1584 9.98983 17.1975C10.8706 18.1584 11.6714 18.8188 12.4722 19.2794C13.1332 19.6598 13.8136 19.8798 14.4741 19.9598C14.6343 19.9802 14.8347 20 14.9949 20C15.5555 20 16.1159 19.9 16.6163 19.6796C18.0179 19.1186 18.9987 17.8378 19.219 16.3563C19.378 15.6557 19.298 14.9553 19.0378 14.2143ZM10.0092 15.2553C8.92806 13.8939 8.22727 12.6127 7.98727 11.532C7.88728 11.0714 7.86708 10.671 7.92728 10.3106C7.96708 9.9902 8.08747 9.7098 8.24767 9.46961C8.62806 8.92942 9.26865 8.58883 10.0094 8.58883C10.7504 8.58883 11.411 8.90922 11.7714 9.46961C11.9316 9.7098 12.0516 9.9904 12.092 10.3106C12.1518 10.6712 12.1318 11.0914 12.0318 11.532C11.7908 12.5927 11.09 13.8741 10.0092 15.2553ZM17.9967 16.1963C17.8567 17.2373 17.1559 18.1384 16.1751 18.5388C15.6947 18.7388 15.1739 18.799 14.6537 18.7388C14.1533 18.6786 13.6526 18.5184 13.1324 18.2184C12.4116 17.8176 11.691 17.1975 10.85 16.2763C12.1712 14.6549 12.972 13.1731 13.2724 11.8522C13.4126 11.2314 13.4328 10.671 13.3724 10.1502C13.2926 9.64981 13.1122 9.18922 12.832 8.78882C12.211 7.88764 11.1698 7.36745 10.009 7.36745C8.84826 7.36745 7.80708 7.90804 7.18649 8.78882C6.9063 9.18922 6.7259 9.64981 6.6459 10.1502C6.5659 10.671 6.5857 11.2514 6.7459 11.8522C7.04609 13.1731 7.86688 14.6747 9.16805 16.2963C8.34727 17.2173 7.60648 17.838 6.8857 18.2384C6.36511 18.5388 5.86492 18.699 5.36453 18.7588C4.82414 18.819 4.30335 18.7388 3.84296 18.5588C2.86218 18.1584 2.16139 17.2573 2.0214 16.2163C1.9614 15.7159 2.0012 15.2155 2.20159 14.6549C2.26139 14.4545 2.36179 14.2545 2.46179 14.0143C2.60198 13.6939 2.76178 13.3533 2.92218 13.0131L2.94238 12.9733C4.32355 9.9902 5.80492 6.94726 7.34649 3.98452L7.40649 3.86413C7.56688 3.56413 7.72708 3.24374 7.88708 2.94334C8.04728 2.62295 8.22727 2.32255 8.44766 2.06216C8.86806 1.58217 9.42844 1.32157 10.0492 1.32157C10.67 1.32157 11.2304 1.58217 11.6508 2.06216C11.8712 2.32315 12.0512 2.62355 12.2114 2.94334C12.3718 3.24374 12.532 3.56413 12.6918 3.86413L12.752 3.98452C14.27 6.95957 15.7317 9.96305 17.1363 12.9933V13.0133C17.2967 13.3341 17.4367 13.6941 17.5969 14.0149C17.6969 14.2547 17.7971 14.4547 17.8571 14.6551C18.0169 15.1751 18.0769 15.6759 17.9967 16.1963Z" fill="#191825" fill-opacity="0.5"/>
</svg>
