<svg width="118" height="20" viewBox="0 0 118 20" fill="none" xmlns="http://www.w3.org/2000/svg">
<mask id="mask0_2058_1013" style="mask-type:luminance" maskUnits="userSpaceOnUse" x="0" y="0" width="118" height="20">
<path d="M117.933 0H0.0554199V20H117.933V0Z" fill="white"/>
</mask>
<g mask="url(#mask0_2058_1013)">
<mask id="mask1_2058_1013" style="mask-type:luminance" maskUnits="userSpaceOnUse" x="0" y="0" width="118" height="20">
<path d="M117.933 0H0.0554199V20H117.933V0Z" fill="white"/>
</mask>
<g mask="url(#mask1_2058_1013)">
<path d="M46.2786 2.18948C46.2786 1.2018 47.0798 0.395996 48.072 0.395996C49.0597 0.395996 49.8655 1.1972 49.8655 2.18948C49.831 3.17717 48.9976 3.94843 48.0076 3.9139C47.0682 3.87936 46.3154 3.12651 46.2786 2.18948Z" fill="#191825" fill-opacity="0.5"/>
</g>
<mask id="mask2_2058_1013" style="mask-type:luminance" maskUnits="userSpaceOnUse" x="0" y="0" width="118" height="20">
<path d="M117.933 0H0.0554199V20H117.933V0Z" fill="white"/>
</mask>
<g mask="url(#mask2_2058_1013)">
<path d="M74.5437 14.136C74.5437 13.1414 75.3449 12.3379 76.3303 12.3379C77.3226 12.3379 78.1261 13.1414 78.1261 14.136C78.1261 15.1283 77.3226 15.9318 76.3303 15.9318C75.3449 15.9318 74.5437 15.126 74.5437 14.136Z" fill="#191825" fill-opacity="0.5"/>
</g>
<mask id="mask3_2058_1013" style="mask-type:luminance" maskUnits="userSpaceOnUse" x="0" y="0" width="118" height="20">
<path d="M117.933 0H0.0554199V20H117.933V0Z" fill="white"/>
</mask>
<g mask="url(#mask3_2058_1013)">
<path d="M16.8853 13.36C15.3451 13.36 14.2699 12.1352 14.2699 10.3831C14.2699 8.63337 15.3428 7.40856 16.8853 7.40856C18.4348 7.40856 19.5214 8.63337 19.5214 10.3831C19.5191 12.1628 18.4601 13.36 16.8853 13.36ZM16.8853 4.79315C13.623 4.79315 11.2539 7.14379 11.2539 10.3831C11.2539 13.6224 13.6253 15.9731 16.8853 15.9731C20.1638 15.9731 22.5397 13.6224 22.5397 10.3854C22.5397 7.14379 20.1592 4.79315 16.8853 4.79315ZM42.8114 10.664C42.6986 10.4453 42.5536 10.2404 42.3855 10.0608L42.2865 9.95719L42.3901 9.85819C42.5397 9.69934 42.694 9.51285 42.839 9.29643L45.7192 5.01417H42.222L40.0579 8.364C39.9358 8.54589 39.6895 8.63107 39.3188 8.63107H38.8238V2.29747C38.8238 1.03121 38.0365 0.86084 37.1823 0.86084H35.7227L35.725 15.8073H38.8215V11.3271H39.1116C39.4639 11.3271 39.7033 11.3685 39.8161 11.5596L41.5244 14.7851C42.0033 15.66 42.4776 15.8096 43.3709 15.8096H45.7514L43.981 12.888L42.8114 10.664ZM57.8546 4.77013C56.2775 4.77013 55.2714 5.47002 54.7096 6.06401L54.5232 6.25511L54.4564 5.99725C54.2906 5.36182 53.7335 5.01648 52.8931 5.01648H51.5049L51.5141 15.8096H54.5922V10.8367C54.5922 10.3486 54.6544 9.92956 54.7833 9.54278C55.1264 8.37782 56.0818 7.65029 57.2744 7.65029C58.2345 7.65029 58.612 8.1568 58.612 9.4691V14.1704C58.612 15.287 59.1277 15.8119 60.249 15.8119H61.7109L61.704 8.94648C61.704 6.20906 60.371 4.77013 57.8546 4.77013ZM48.1113 5.01417H46.6516L46.6608 13.36V15.8073H48.2172L48.2724 15.8096L49 15.8073H49.7206V15.805H49.7275L49.7344 6.65571C49.7298 5.55061 49.2026 5.01417 48.1113 5.01417ZM28.97 13.36C27.4298 13.36 26.3546 12.1352 26.3546 10.3831C26.3546 8.63337 27.4298 7.40856 28.97 7.40856C30.5172 7.40856 31.6062 8.63337 31.6062 10.3831C31.6039 12.1628 30.5448 13.36 28.97 13.36ZM28.97 4.79315C25.7054 4.79315 23.334 7.14379 23.334 10.3831C23.334 13.6224 25.7054 15.9731 28.97 15.9731C32.2416 15.9731 34.6245 13.6224 34.6245 10.3854C34.6245 7.14379 32.2439 4.79315 28.97 4.79315Z" fill="#191825" fill-opacity="0.5"/>
</g>
</g>
<mask id="mask4_2058_1013" style="mask-type:luminance" maskUnits="userSpaceOnUse" x="0" y="0" width="118" height="20">
<path d="M117.933 0H0.0554199V20H117.933V0Z" fill="white"/>
</mask>
<g mask="url(#mask4_2058_1013)">
<mask id="mask5_2058_1013" style="mask-type:luminance" maskUnits="userSpaceOnUse" x="0" y="0" width="118" height="20">
<path d="M117.907 0.393555H0.0554199V19.9745H117.907V0.393555Z" fill="white"/>
</mask>
<g mask="url(#mask5_2058_1013)">
<mask id="mask6_2058_1013" style="mask-type:luminance" maskUnits="userSpaceOnUse" x="0" y="0" width="118" height="20">
<path d="M117.933 0H0.0554199V20H117.933V0Z" fill="white"/>
</mask>
<g mask="url(#mask6_2058_1013)">
<path d="M94.9258 13.3603C93.3856 13.3603 92.3104 12.1355 92.3104 10.3834C92.3104 8.63368 93.3856 7.40886 94.9258 7.40886C96.4752 7.40886 97.5619 8.63368 97.5619 10.3834C97.5619 12.1631 96.5006 13.3603 94.9258 13.3603ZM94.9258 4.79346C91.6612 4.79346 89.2898 7.1441 89.2898 10.3834C89.2898 13.6227 91.6566 15.9734 94.9258 15.9734C98.1997 15.9734 100.58 13.6227 100.58 10.3857C100.58 7.1441 98.1974 4.79346 94.9258 4.79346Z" fill="#191825" fill-opacity="0.5"/>
</g>
<mask id="mask7_2058_1013" style="mask-type:luminance" maskUnits="userSpaceOnUse" x="0" y="0" width="118" height="20">
<path d="M117.933 0H0.0554199V20H117.933V0Z" fill="white"/>
</mask>
<g mask="url(#mask7_2058_1013)">
<path d="M68.1894 12.8814C66.5064 12.8814 65.9101 11.4149 65.9101 10.0404C65.9101 9.43259 66.0644 7.45952 68.0328 7.45952C69.009 7.45952 70.3098 7.7404 70.3098 10.1394C70.3075 12.4071 69.1541 12.8814 68.1894 12.8814ZM71.9053 4.98686C71.3205 4.98686 70.8716 5.21939 70.6459 5.64531L70.5631 5.81108L70.4203 5.68445C69.923 5.25392 69.032 4.74512 67.5885 4.74512C64.7106 4.74512 62.7744 6.90467 62.7744 10.1233C62.7744 13.3373 64.7797 15.582 67.6484 15.582C68.6268 15.582 69.4027 15.3518 70.0151 14.8867L70.25 14.7094V15.0087C70.25 16.4523 69.3175 17.2466 67.6276 17.2466C66.8034 17.2466 66.0575 17.0463 65.5579 16.8644C64.9063 16.6664 64.5218 16.8321 64.2594 17.4837L64.013 18.0869L63.6677 18.9687L63.8818 19.0815C64.9639 19.6571 66.3729 19.9978 67.6438 19.9978C70.2638 19.9978 73.3235 18.6579 73.3235 14.8821L73.3327 4.97995H71.9053" fill="#191825" fill-opacity="0.5"/>
</g>
</g>
</g>
<mask id="mask8_2058_1013" style="mask-type:luminance" maskUnits="userSpaceOnUse" x="0" y="0" width="118" height="20">
<path d="M117.933 0H0.0554199V20H117.933V0Z" fill="white"/>
</mask>
<g mask="url(#mask8_2058_1013)">
<mask id="mask9_2058_1013" style="mask-type:luminance" maskUnits="userSpaceOnUse" x="0" y="0" width="118" height="20">
<path d="M117.933 0H0.0554199V20H117.933V0Z" fill="white"/>
</mask>
<g mask="url(#mask9_2058_1013)">
<path d="M5.42666 13.2336L2.91947 13.2313V10.2383C2.91947 9.59601 3.16812 9.26678 3.71376 9.1885H5.42206C6.63997 9.1885 7.42736 9.95747 7.43196 11.2007C7.43196 12.4785 6.66299 13.2336 5.42666 13.2336ZM2.91947 5.15719V4.36981C2.91947 3.67912 3.20956 3.3522 3.8519 3.31075H5.13427C6.23247 3.31075 6.89092 3.96921 6.89092 5.0697C6.89092 5.91004 6.43967 6.88851 5.17341 6.88851H2.91947V5.15719ZM8.62224 8.14557L8.171 7.89001L8.56469 7.55157C9.02745 7.15788 9.79411 6.2669 9.79411 4.73127C9.79411 2.38063 7.973 0.865723 5.15269 0.865723H1.57033C0.734596 0.895652 0.0646291 1.57943 0.0554199 2.41516V15.75H5.21946C8.35518 15.75 10.3766 14.044 10.3766 11.401C10.3766 9.98279 9.72044 8.76488 8.62224 8.14557Z" fill="#191825" fill-opacity="0.5"/>
</g>
<mask id="mask10_2058_1013" style="mask-type:luminance" maskUnits="userSpaceOnUse" x="0" y="0" width="118" height="20">
<path d="M117.933 0H0.0554199V20H117.933V0Z" fill="white"/>
</mask>
<g mask="url(#mask10_2058_1013)">
<path d="M114.325 4.80504C113.04 4.80734 111.822 5.39903 111.021 6.40743L110.798 6.68831L110.623 6.3729C110.052 5.33226 109.074 4.80734 107.706 4.80734C106.276 4.80734 105.316 5.60393 104.87 6.08051L104.579 6.39592L104.467 5.97921C104.305 5.38061 103.771 5.05138 102.966 5.05138H101.672L101.658 15.8031H104.596V11.0558C104.596 10.639 104.646 10.2292 104.75 9.7987C105.031 8.65216 105.802 7.41814 107.098 7.54016C107.895 7.61844 108.286 8.23545 108.286 9.42573V15.8008H111.245V11.0535C111.245 10.5331 111.293 10.1417 111.41 9.75496C111.645 8.65907 112.453 7.53555 113.703 7.53555C114.608 7.53555 114.944 8.04666 114.944 9.42573V14.2283C114.944 15.3127 115.428 15.8008 116.515 15.8008H117.896L117.898 8.93765C117.907 6.19332 116.699 4.80504 114.325 4.80504ZM87.5886 12.0688C87.5793 12.078 86.3154 13.4133 84.6508 13.4133C83.1336 13.4133 81.6026 12.4832 81.6026 10.4065C81.6026 8.61303 82.7906 7.35828 84.492 7.35828C85.0445 7.35828 85.6707 7.55628 85.7697 7.88781L85.7836 7.94306C85.9125 8.41503 86.343 8.73965 86.8288 8.73735L88.4381 8.73965V7.33065C88.4381 5.4727 86.0783 4.80273 84.4874 4.80273C81.0892 4.80273 78.6257 7.16719 78.6257 10.4249C78.6257 13.6804 81.0639 16.0448 84.4252 16.0448C87.3422 16.0448 88.9262 14.127 88.9423 14.1109L89.0252 14.0073L87.7497 11.8915L87.5886 12.0688Z" fill="#191825" fill-opacity="0.5"/>
</g>
</g>
</svg>
