<svg width="72" height="20" viewBox="0 0 72 20" fill="none" xmlns="http://www.w3.org/2000/svg">
<path d="M34.3553 15.6479H32.1584C32.1445 15.6479 32.1445 15.6479 32.1376 15.641L30.2466 13.3329L28.3556 15.641C28.3487 15.6479 28.3417 15.6479 28.3348 15.6479H26.5759C26.562 15.6479 26.555 15.641 26.5481 15.634C26.5481 15.6271 26.5481 15.6132 26.555 15.6062L29.3428 12.1858L26.5898 8.80013C26.5829 8.78623 26.5829 8.77927 26.5829 8.76537C26.5898 8.75842 26.5968 8.75146 26.6037 8.75146H28.8006C28.8075 8.75146 28.8145 8.75842 28.8214 8.76537L30.483 10.8232L32.1723 8.76537C32.1793 8.75842 32.1862 8.75146 32.1932 8.75146H33.9799C33.9868 8.75146 34.0007 8.75842 34.0077 8.76537C34.0146 8.77927 34.0077 8.78623 34.0007 8.80013L31.3937 11.9355L34.3831 15.6062C34.3901 15.6132 34.3901 15.6271 34.3901 15.634C34.3762 15.6479 34.3692 15.6479 34.3553 15.6479Z" fill="#191825" fill-opacity="0.5"/>
<path d="M46.2364 9.96101C45.2632 9.96101 44.6027 10.5519 44.408 11.5739H47.7172V11.5044C47.7172 10.691 47.1124 9.96101 46.2364 9.96101ZM49.4205 12.6306C49.4136 12.6376 49.4066 12.6445 49.3997 12.6445H44.3733C44.4776 13.8125 45.2353 14.4799 46.4659 14.4799C47.2236 14.4799 48.0301 14.2226 49.1633 13.6178C49.1841 13.6039 49.205 13.6248 49.205 13.6456V15.189C49.205 15.2029 49.198 15.2098 49.1911 15.2098C48.1344 15.6548 47.0707 15.9607 46.2364 15.9607C44.0743 15.9607 42.5032 14.3825 42.5032 12.2135C42.5032 10.0444 44.0743 8.46631 46.2364 8.46631C48.2108 8.46631 49.4761 9.79416 49.4761 11.6226C49.4761 11.9215 49.4275 12.6098 49.4205 12.6306Z" fill="#191825" fill-opacity="0.5"/>
<path d="M59.6261 7.31951C59.0074 7.31951 58.5068 6.82591 58.5068 6.22108C58.5068 5.59539 59.0074 5.08789 59.6261 5.08789C60.2449 5.08789 60.7454 5.59539 60.7454 6.22108C60.7454 6.82591 60.2449 7.31951 59.6261 7.31951ZM58.7223 15.6481C58.7015 15.6481 58.6945 15.6412 58.6945 15.6203V8.7725C58.6945 8.7586 58.7015 8.74469 58.7154 8.74469H60.5299C60.5438 8.74469 60.5508 8.7586 60.5508 8.7725V15.6203C60.5508 15.6412 60.5368 15.6481 60.5229 15.6481H58.7223Z" fill="#191825" fill-opacity="0.5"/>
<path d="M37.6783 14.6189C37.3516 14.6189 37.0179 14.5702 36.6285 14.4729L36.6355 10.0792C37.0874 9.9332 37.4767 9.87063 37.866 9.87063C39.1243 9.87063 39.9655 10.7953 39.9655 12.1787C39.9655 13.6595 39.0687 14.6189 37.6783 14.6189ZM38.1719 8.46631C37.6575 8.46631 37.143 8.55669 36.6007 8.74439H34.7932C34.7793 8.74439 34.7654 8.7583 34.7654 8.7722V19.9998C35.3076 19.9234 35.975 19.7287 36.6285 19.2699V15.8564C37.0735 15.919 37.4419 15.9607 37.7965 15.9607C40.2714 15.9607 41.8704 14.4799 41.8704 12.1857C41.8704 9.99577 40.3479 8.46631 38.1719 8.46631Z" fill="#191825" fill-opacity="0.5"/>
<path d="M55.4201 14.0492C54.857 14.3481 54.3495 14.4871 53.8767 14.4871C52.7575 14.4871 52.0831 13.6946 52.0831 12.3667C52.0831 10.8373 52.9382 9.84314 54.2661 9.84314C54.6345 9.84314 54.9891 9.93351 55.4201 10.1282V14.0492ZM55.4201 5.12266V8.70299C54.8917 8.55005 54.426 8.48053 53.9532 8.48053C51.7981 8.48053 50.1782 10.1004 50.1782 12.2555C50.1782 14.3968 51.6104 15.954 53.5847 15.954C54.2661 15.954 54.9056 15.7802 55.6565 15.3979V16.0166C56.1501 15.9193 56.7201 15.7246 57.2833 15.3214V4.38574C56.734 4.46222 56.0805 4.64992 55.4201 5.12266Z" fill="#191825" fill-opacity="0.5"/>
<path d="M66.8425 14.0352C66.2933 14.348 65.8275 14.501 65.4103 14.501C64.2076 14.501 63.4916 13.7084 63.4916 12.3806C63.4916 10.872 64.3397 9.85698 65.598 9.85698C65.9317 9.85698 66.3419 9.98907 66.8425 10.2533V14.0352ZM68.7056 8.66122C68.7056 8.61951 68.6709 8.58475 68.6292 8.58475H67.1623C67.1205 8.58475 67.0788 8.61951 67.0788 8.66122V8.9115H67.0441C66.3697 8.61256 65.7857 8.48047 65.2226 8.48047C63.1926 8.48047 61.6006 10.1629 61.6006 12.318C61.6006 14.494 63.0258 15.954 65.1462 15.954C65.7093 15.954 66.4392 15.9123 67.1206 15.1336V16.0165C67.6002 15.9123 68.1703 15.7106 68.7056 15.3213V8.66122Z" fill="#191825" fill-opacity="0.5"/>
<path d="M21.5565 13.9376H26.1101C26.0406 14.4451 25.8668 15.043 25.4774 15.6478H20.7431C20.166 15.6478 19.6863 15.1959 19.6307 14.6328C19.6307 14.6259 19.6238 14.6189 19.6238 14.605V5.62289C19.6238 5.61594 19.6307 5.60899 19.6307 5.60204C19.6863 5.03196 20.166 4.58008 20.7431 4.58008H26.1031C26.0336 5.08758 25.8598 5.69937 25.4635 6.3042H21.5565V8.75133H25.4288C25.4427 8.75133 25.4566 8.76524 25.4566 8.77914V10.4755C25.4566 10.4894 25.4427 10.5033 25.4288 10.5033H21.5565V13.9376Z" fill="#191825" fill-opacity="0.5"/>
<path d="M15.8558 15.7942C15.404 15.7942 15.1259 15.4397 15.1259 15.0087C15.1259 14.5498 15.4457 14.2231 15.8558 14.2231C16.2591 14.2231 16.5789 14.5429 16.5789 15.0087C16.5789 15.4745 16.2591 15.7942 15.8558 15.7942ZM15.8558 14.1396C15.397 14.1396 15.0007 14.4873 15.0007 15.0087C15.0007 15.5023 15.3553 15.8777 15.8558 15.8777C16.3077 15.8777 16.704 15.5301 16.704 15.0087C16.704 14.4873 16.3147 14.1396 15.8558 14.1396Z" fill="#191825" fill-opacity="0.5"/>
<path d="M15.654 14.9387V14.6189H15.8696C15.9808 14.6189 16.1059 14.6328 16.1059 14.7649C16.1059 14.9248 15.9877 14.9318 15.8556 14.9318C15.8487 14.9387 15.654 14.9387 15.654 14.9387ZM16.2589 14.7858C16.2589 14.5772 16.1337 14.4868 15.8835 14.4868H15.4941V15.5157H15.661V15.0777H15.8209L16.0851 15.5157H16.2797L15.9947 15.0638C16.1476 15.0499 16.2589 14.9735 16.2589 14.7858Z" fill="#191825" fill-opacity="0.5"/>
<path d="M70.2072 9.88495C69.7553 9.88495 69.4772 9.53039 69.4772 9.09936C69.4772 8.64053 69.797 8.31378 70.2072 8.31378C70.6104 8.31378 70.9302 8.63357 70.9302 9.09936C70.9302 9.56515 70.6104 9.88495 70.2072 9.88495ZM70.2072 8.2373C69.7483 8.2373 69.3521 8.58491 69.3521 9.10632C69.3521 9.59992 69.7066 9.97533 70.2072 9.97533C70.659 9.97533 71.0553 9.62772 71.0553 9.10632C71.0553 8.57796 70.659 8.2373 70.2072 8.2373Z" fill="#191825" fill-opacity="0.5"/>
<path d="M69.9987 9.02941V8.71656H70.2142C70.3254 8.71656 70.4505 8.73047 70.4505 8.86256C70.4505 9.02245 70.3324 9.02941 70.2003 9.02941H69.9987ZM70.6104 8.88341C70.6104 8.67485 70.4853 8.58447 70.235 8.58447H69.8457V9.61338H70.0126V9.1754H70.1725L70.4366 9.61338H70.6313L70.3463 9.1615C70.4922 9.14759 70.6104 9.07112 70.6104 8.88341Z" fill="#191825" fill-opacity="0.5"/>
<path d="M9.9812 6.29742L9.65445 5.36584L6.8458 1.61866L7.34636 1.49352L12.1781 5.67173L15.0215 4.85833C15.3552 4.77491 15.7375 4.75405 16.0226 4.75405C15.1327 2.82832 13.492 1.24324 11.3369 0.478514C7.07522 -1.04399 2.38256 1.18763 0.867004 5.45621C0.394262 6.77711 0.28998 8.13972 0.484639 9.43281L7.29074 7.0691L9.9812 6.29742Z" fill="#191825" fill-opacity="0.5"/>
<path d="M16.3285 5.49072C16.0782 5.65062 15.7098 5.86614 15.3483 5.98432L12.4979 6.79772L10.6 12.9017L10.1064 13.0616L10.5096 8.40365L10.2871 7.43731L7.61753 8.20204L0.554199 9.84969C1.11732 12.561 3.0361 14.9317 5.83779 15.9258C10.1064 17.4483 14.7921 15.2167 16.3146 10.9481C16.9681 9.11972 16.9264 7.20094 16.3285 5.49072Z" fill="#191825" fill-opacity="0.5"/>
<path d="M10.2802 7.43086L10.5027 8.3972L10.0995 13.0551L10.5931 12.8952L12.491 6.79126L15.3414 5.97787C15.7029 5.85968 16.0713 5.65112 16.3216 5.48427C16.2312 5.234 16.1339 4.99067 16.0227 4.74735C15.7307 4.74735 15.3553 4.76125 15.0216 4.85163L12.1782 5.66502L7.34645 1.48682L6.8459 1.61195L9.64759 5.35913L9.97434 6.29071L7.28388 7.0624L0.477783 9.42611C0.498639 9.56515 0.526448 9.71114 0.554256 9.85019L7.61063 8.18864L10.2802 7.43086Z" fill="white"/>
</svg>
