<svg width="133" height="20" viewBox="0 0 133 20" fill="none" xmlns="http://www.w3.org/2000/svg">
<path d="M14.2506 12.0169C15.3892 15.1017 18.8208 16.6807 21.9064 15.5448C24.9903 14.4009 26.5728 10.9728 25.4298 7.88721C24.2904 4.79806 20.8641 3.22172 17.774 4.36029C14.6867 5.50327 13.1103 8.92957 14.2506 12.0169Z" fill="white"/>
<path d="M6.63005 15.8885C9.92134 15.8885 12.5895 13.2204 12.5895 9.92913C12.5895 6.63784 9.92134 3.96973 6.63005 3.96973C3.33877 3.96973 0.670654 6.63784 0.670654 9.92913C0.670654 13.2204 3.33877 15.8885 6.63005 15.8885Z" fill="white"/>
<path d="M7.64612 9.86604C7.64612 10.4733 7.15274 10.9711 6.5455 10.9711C5.93561 10.9711 5.44312 10.4742 5.44312 9.86604C5.44312 9.25968 5.93561 8.76807 6.5455 8.76807C7.15274 8.76895 7.64612 9.25968 7.64612 9.86604Z" fill="#191825" fill-opacity="0.5"/>
<path d="M20.9266 9.86604C20.9266 10.4733 20.435 10.9711 19.8277 10.9711C19.2161 10.9711 18.7253 10.4742 18.7253 9.86604C18.7253 9.25968 19.2161 8.76807 19.8277 8.76807C20.4358 8.76895 20.9266 9.25968 20.9266 9.86604Z" fill="#191825" fill-opacity="0.5"/>
<path d="M3.271 9.86578C3.271 11.6725 4.74055 13.1394 6.54725 13.1394C8.34955 13.1394 9.81822 11.6725 9.81822 9.86578C9.81822 8.06349 8.34867 6.5957 6.54725 6.5957C4.74143 6.59747 3.271 8.06437 3.271 9.86578ZM4.39986 9.86578C4.39986 8.68396 5.36544 7.7228 6.54902 7.7228C7.73084 7.7228 8.69112 8.68661 8.69112 9.86578C8.69112 11.0511 7.73084 12.0141 6.54902 12.0141C5.36544 12.0149 4.39986 11.0529 4.39986 9.86578Z" fill="#191825" fill-opacity="0.5"/>
<path d="M16.5532 9.86578C16.5532 11.6725 18.021 13.1394 19.8268 13.1394C21.63 13.1394 23.0969 11.6725 23.0969 9.86578C23.0969 8.06349 21.63 6.5957 19.8268 6.5957C18.0219 6.59747 16.5532 8.06437 16.5532 9.86578ZM17.6821 9.86578C17.6821 8.68396 18.645 7.7228 19.8295 7.7228C21.0113 7.7228 21.9707 8.68661 21.9707 9.86578C21.9707 11.0511 21.0113 12.0141 19.8295 12.0141C18.6432 12.0149 17.6821 11.0529 17.6821 9.86578Z" fill="#191825" fill-opacity="0.5"/>
<path d="M17.5447 3.73253C18.2349 3.47834 18.941 3.35478 19.6382 3.33536C17.7389 2.4854 15.5888 2.05469 13.2066 2.05469C10.843 2.05469 8.66119 2.49511 6.7627 3.30711C10.1987 3.37508 12.9922 6.06616 13.2331 9.45804C13.2914 8.67958 13.482 7.90994 13.8183 7.1809C14.5588 5.56837 15.8836 4.34507 17.5447 3.73253Z" fill="white"/>
<path d="M25.1686 6.01406C25.4793 4.68396 26.4651 3.35298 26.4651 3.35298L22.0406 3.35033C19.5596 1.74839 16.5463 0.898438 13.2083 0.898438C9.74316 0.898438 6.6143 1.76869 4.1474 3.38211L0 3.38564C0 3.38564 0.974404 4.70161 1.2895 6.022C0.482789 7.11909 0.00353045 8.46684 0.00353045 9.93021C0.00353045 13.5833 2.97705 16.5551 6.63195 16.5551C8.7211 16.5551 10.5843 15.5816 11.7996 14.0688L13.2109 16.1818L14.6328 14.0502C15.2727 14.864 16.098 15.5242 17.0653 15.9717C18.6743 16.7113 20.4775 16.7846 22.1377 16.1712C25.5666 14.9029 27.3274 11.0803 26.0591 7.65572C25.8367 7.05289 25.5331 6.50479 25.1686 6.01406ZM13.2074 2.05554C15.5896 2.05554 17.7396 2.48626 19.639 3.3371C18.9409 3.35563 18.2357 3.48008 17.5455 3.73251C15.8844 4.34504 14.5596 5.56834 13.8208 7.17823C13.4846 7.90726 13.2948 8.6769 13.2357 9.45537C12.9929 6.06525 10.1995 3.37417 6.76346 3.30444C8.66108 2.49508 10.842 2.05554 13.2074 2.05554ZM11.0115 12.8905C10.06 14.2938 8.45013 15.2188 6.63019 15.2188C3.71227 15.2188 1.33804 12.8428 1.33804 9.93109C1.33804 7.01141 3.71315 4.63983 6.63019 4.63983C9.54722 4.63983 11.9214 7.01141 11.9214 9.93109C11.9214 10.1094 11.887 10.2771 11.8685 10.4492C11.7802 11.3433 11.4925 12.1809 11.0115 12.8905ZM21.6743 14.917C20.3486 15.4042 18.9109 15.3503 17.6267 14.7581C16.7158 14.3362 15.97 13.6751 15.4325 12.8543C15.2136 12.5224 15.0212 12.1703 14.8791 11.7846C14.7176 11.3486 14.6372 10.8993 14.594 10.4465C14.5057 9.52862 14.639 8.60011 15.0344 7.73957C15.6275 6.45537 16.6831 5.47831 18.0088 4.98758C20.7467 3.97787 23.7944 5.38211 24.8058 8.11909C25.8164 10.8561 24.4113 13.9037 21.6743 14.917Z" fill="#191825" fill-opacity="0.5"/>
<path d="M34.2827 1.86672L32.3427 2.53662C32.3427 2.53662 32.3427 4.85965 32.3427 5.06795C32.1397 5.06795 30.1926 5.06795 30.1926 5.06795V6.76521C30.1926 6.76521 32.0797 6.76521 32.2844 6.76521C32.2844 6.98587 32.2844 12.2145 32.2844 12.2145C32.2844 14.8041 33.1661 15.8667 35.3347 15.8667C35.8846 15.8667 36.4097 15.7988 36.9367 15.6549L37.0223 15.6337L36.9985 13.8738L36.8502 13.9303C36.4239 14.0777 36.0902 14.15 35.8325 14.15C34.814 14.15 34.4362 13.5772 34.4362 12.0309C34.4362 12.0309 34.4362 6.98499 34.4362 6.76786C34.6428 6.76786 36.9173 6.76786 36.9173 6.76786V5.06795C36.9173 5.06795 34.6436 5.06795 34.4362 5.06795C34.4362 4.85789 34.4362 1.81641 34.4362 1.81641L34.2827 1.86672Z" fill="#191825" fill-opacity="0.5"/>
<path d="M40.9904 6.7871C40.9904 6.18957 40.9904 5.06777 40.9904 5.06777H39.0222V15.6794H41.174V10.3529C41.174 8.11984 42.1122 6.88948 43.8122 6.88948C44.0584 6.88948 44.2976 6.92655 44.5889 7.00863L44.7283 7.04835L44.7989 4.95391L43.8731 4.8833C42.6259 4.88242 41.6189 5.55585 40.9904 6.7871Z" fill="#191825" fill-opacity="0.5"/>
<path d="M48.6338 5.06688H46.5967V15.6794H48.7485V5.06688H48.6338ZM46.3884 1.95743C46.3884 2.66352 46.9639 3.23634 47.6682 3.23634C48.3743 3.23634 48.948 2.66352 48.948 1.95743C48.948 1.25223 48.3743 0.676762 47.6682 0.676762C46.9639 0.674997 46.3884 1.25223 46.3884 1.95743Z" fill="#191825" fill-opacity="0.5"/>
<path d="M56.3479 4.81787C54.8713 4.81787 53.6295 5.5169 52.8016 6.78874C52.8016 6.28036 52.8016 5.065 52.8016 5.065H50.8342V19.9997H52.9878C52.9878 19.9997 52.9878 14.7843 52.9878 14.2106C53.7645 15.2671 54.8784 15.8479 56.2649 15.8479C58.9852 15.8479 60.7424 13.6158 60.7424 10.1692C60.7424 6.9688 58.9754 4.81787 56.3479 4.81787ZM55.7468 14.1074C54.0443 14.1074 52.9869 12.6519 52.9869 10.3139C52.9869 8.05706 54.1025 6.59898 55.8289 6.59898C57.4927 6.59898 58.4874 7.98115 58.4874 10.2918C58.4882 12.644 57.4371 14.1074 55.7468 14.1074Z" fill="#191825" fill-opacity="0.5"/>
<path d="M67.0318 4.81836C65.7158 4.81836 64.5631 5.06726 63.5058 5.57564L63.4405 5.60742L63.4634 7.44413L63.6329 7.34881C64.6435 6.78394 65.6002 6.49532 66.4713 6.49532C68.03 6.49532 68.925 7.38853 68.925 8.94987C68.925 8.94987 68.925 8.99488 68.925 9.04078C68.7353 9.04078 67.6938 9.04078 67.6938 9.04078C64.151 9.04078 62.2021 10.3241 62.2021 12.6507C62.2021 14.5192 63.609 15.8254 65.6232 15.8254C67.1051 15.8254 68.2516 15.2429 69.0689 14.1467C69.0689 14.573 69.0689 15.6789 69.0689 15.6789H71.0133V9.25702C71.0124 6.3135 69.6735 4.81836 67.0318 4.81836ZM68.9215 11.1996C68.9215 13.0275 67.8217 14.2102 66.1201 14.2102C65.0777 14.2102 64.3504 13.5253 64.3504 12.5456C64.3504 11.2579 65.5817 10.5509 67.8164 10.5509C67.8164 10.5509 68.737 10.5509 68.9232 10.5509C68.9215 10.716 68.9215 11.1996 68.9215 11.1996Z" fill="#191825" fill-opacity="0.5"/>
<path d="M80.1516 0C80.1516 0 80.1516 5.91615 80.1516 6.5075C79.3582 5.40424 78.254 4.81995 76.8357 4.81995C74.2028 4.81995 72.4341 6.98764 72.4341 10.2092C72.4341 13.5278 74.2284 15.8455 76.7924 15.8455C78.3114 15.8455 79.4959 15.173 80.3167 13.8658C80.3167 14.3945 80.3167 15.6805 80.3167 15.6805H82.3061V0H80.1516ZM77.3502 14.0644C75.7103 14.0644 74.6918 12.6346 74.6918 10.3327C74.6918 8.02824 75.7192 6.53839 77.3114 6.53839C79.089 6.53839 80.1499 7.95587 80.1499 10.3327C80.1516 12.6037 79.0554 14.0644 77.3502 14.0644Z" fill="#191825" fill-opacity="0.5"/>
<path d="M91.9216 5.06689L88.8704 11.1949L86.0495 5.06689H83.625L88.8254 15.6794L94.1669 5.06689H91.9216Z" fill="#191825" fill-opacity="0.5"/>
<path d="M97.2995 5.06688H95.2616V15.6794H97.416V5.06688H97.2995ZM95.0559 1.95743C95.0559 2.66352 95.6305 3.23634 96.3357 3.23634C97.0444 3.23634 97.6155 2.66352 97.6155 1.95743C97.6155 1.25223 97.0427 0.676762 96.3357 0.676762C95.6314 0.674997 95.0559 1.25223 95.0559 1.95743Z" fill="#191825" fill-opacity="0.5"/>
<path d="M99.9389 7.78831C99.9389 9.28081 100.965 10.0672 102.859 10.994C104.053 11.5809 104.677 11.9269 104.677 12.7539C104.677 13.6021 103.911 14.1502 102.721 14.1502C101.88 14.1502 100.946 13.9136 100.021 13.4591L99.8639 13.3814L99.7942 15.2526L99.8657 15.279C100.75 15.6312 101.679 15.8033 102.64 15.8033C105.272 15.8033 106.971 14.5491 106.971 12.6083C106.971 10.9904 105.895 10.1687 104.03 9.29846C102.664 8.6568 102.092 8.28346 102.092 7.60296C102.092 6.95865 102.729 6.53853 103.714 6.53853C104.604 6.53853 105.472 6.73624 106.294 7.12812L106.449 7.19961L106.543 5.36907L106.457 5.34436C105.566 5.07957 104.686 4.9463 103.838 4.9463C101.506 4.94277 99.9389 6.08663 99.9389 7.78831Z" fill="#191825" fill-opacity="0.5"/>
<path d="M113.685 4.81836C110.451 4.81836 108.443 6.9481 108.443 10.3726C108.443 13.7989 110.453 15.9252 113.685 15.9252C116.934 15.9252 118.951 13.7981 118.951 10.3726C118.951 6.94899 116.932 4.81836 113.685 4.81836ZM113.704 14.1696C111.916 14.1696 110.716 12.6357 110.716 10.3523C110.716 8.05666 111.916 6.51739 113.704 6.51739C115.52 6.51739 116.693 8.02401 116.693 10.3523C116.693 12.6718 115.522 14.1696 113.704 14.1696Z" fill="#191825" fill-opacity="0.5"/>
<path d="M122.921 6.7871C122.921 6.18957 122.921 5.06777 122.921 5.06777H120.952V15.6794H123.104V10.3529C123.104 8.11984 124.037 6.88948 125.74 6.88948C125.984 6.88948 126.222 6.92655 126.508 7.00863L126.653 7.04835L126.72 4.95391L125.798 4.8833C124.556 4.88242 123.551 5.55585 122.921 6.7871Z" fill="#191825" fill-opacity="0.5"/>
<path d="M131.853 4.59775C132.206 4.95521 132.392 5.43006 132.392 5.94109C132.392 6.47507 132.192 6.95345 131.825 7.30561C131.442 7.66925 130.967 7.8643 130.471 7.8643C129.953 7.8643 129.476 7.66042 129.106 7.27737C128.752 6.9102 128.552 6.44065 128.552 5.93933C128.552 5.42829 128.755 4.93315 129.137 4.55715C129.494 4.20676 129.954 4.01611 130.471 4.01611C131.002 4.017 131.484 4.21823 131.853 4.59775ZM129.375 4.8087C129.064 5.11938 128.898 5.5192 128.898 5.94109C128.898 6.35239 129.052 6.73103 129.349 7.03288C129.646 7.34356 130.04 7.51126 130.463 7.51126C130.875 7.51126 131.27 7.35327 131.575 7.05671C131.875 6.7681 132.04 6.37269 132.04 5.94021C132.04 5.51744 131.887 5.1335 131.596 4.83959C131.29 4.52891 130.903 4.36563 130.471 4.36563C130.046 4.36563 129.672 4.51744 129.375 4.8087ZM130.506 4.84489C131.108 4.84489 131.417 5.06289 131.417 5.45742C131.417 5.72926 131.256 5.94021 130.969 6.0267L131.442 6.95256H130.801L130.407 6.11673H130.24V6.95256H129.659V4.844L130.506 4.84489ZM130.236 5.77339H130.438C130.696 5.77339 130.821 5.68249 130.821 5.50155C130.821 5.29502 130.69 5.21029 130.407 5.21029H130.236V5.77339Z" fill="#191825" fill-opacity="0.5"/>
</svg>
